<mxfile host="Electron" agent="Mozilla/5.0 (Windows NT 10.0; Win64; x64) AppleWebKit/537.36 (KHTML, like Gecko) draw.io/26.1.1 Chrome/132.0.6834.210 Electron/34.3.3 Safari/537.36" version="26.1.1">
  <diagram id="Ht1M8jgEwFfnCIfOTk4-" name="Page-1">
    <mxGraphModel dx="1059" dy="1463" grid="0" gridSize="10" guides="1" tooltips="1" connect="1" arrows="1" fold="1" page="1" pageScale="1" pageWidth="1169" pageHeight="827" math="0" shadow="0">
      <root>
        <mxCell id="0" />
        <mxCell id="1" parent="0" />
        <mxCell id="Di7BUi1CNMxyMRBLhMNI-2" value="&lt;b&gt;AWS Cloud&lt;/b&gt;" style="points=[[0,0],[0.25,0],[0.5,0],[0.75,0],[1,0],[1,0.25],[1,0.5],[1,0.75],[1,1],[0.75,1],[0.5,1],[0.25,1],[0,1],[0,0.75],[0,0.5],[0,0.25]];outlineConnect=0;gradientColor=none;html=1;whiteSpace=wrap;fontSize=12;fontStyle=0;container=1;pointerEvents=0;collapsible=0;recursiveResize=0;shape=mxgraph.aws4.group;grIcon=mxgraph.aws4.group_aws_cloud_alt;strokeColor=#232F3E;fillColor=none;verticalAlign=top;align=left;spacingLeft=30;fontColor=#232F3E;dashed=0;" parent="1" vertex="1">
          <mxGeometry x="10" y="10" width="1060" height="800" as="geometry" />
        </mxCell>
        <mxCell id="Di7BUi1CNMxyMRBLhMNI-3" value="&lt;b&gt;Region&lt;/b&gt;" style="points=[[0,0],[0.25,0],[0.5,0],[0.75,0],[1,0],[1,0.25],[1,0.5],[1,0.75],[1,1],[0.75,1],[0.5,1],[0.25,1],[0,1],[0,0.75],[0,0.5],[0,0.25]];outlineConnect=0;gradientColor=none;html=1;whiteSpace=wrap;fontSize=12;fontStyle=0;container=1;pointerEvents=0;collapsible=0;recursiveResize=0;shape=mxgraph.aws4.group;grIcon=mxgraph.aws4.group_region;strokeColor=#147EBA;fillColor=none;verticalAlign=top;align=left;spacingLeft=30;fontColor=#147EBA;dashed=1;" parent="1" vertex="1">
          <mxGeometry x="40" y="80" width="1000" height="700" as="geometry" />
        </mxCell>
        <mxCell id="Di7BUi1CNMxyMRBLhMNI-5" value="&lt;b&gt;&lt;font color=&quot;#97d077&quot;&gt;VPC 10.0.0.0/16&lt;/font&gt;&lt;/b&gt;" style="points=[[0,0],[0.25,0],[0.5,0],[0.75,0],[1,0],[1,0.25],[1,0.5],[1,0.75],[1,1],[0.75,1],[0.5,1],[0.25,1],[0,1],[0,0.75],[0,0.5],[0,0.25]];outlineConnect=0;gradientColor=none;html=1;whiteSpace=wrap;fontSize=12;fontStyle=0;container=1;pointerEvents=0;collapsible=0;recursiveResize=0;shape=mxgraph.aws4.group;grIcon=mxgraph.aws4.group_vpc;strokeColor=#248814;fillColor=none;verticalAlign=top;align=left;spacingLeft=30;fontColor=#AAB7B8;dashed=0;" parent="Di7BUi1CNMxyMRBLhMNI-3" vertex="1">
          <mxGeometry x="40" y="40" width="920" height="590" as="geometry" />
        </mxCell>
        <mxCell id="Di7BUi1CNMxyMRBLhMNI-7" value="&lt;b&gt;Availability Zone 1a&lt;/b&gt;" style="fillColor=none;strokeColor=#147EBA;dashed=1;verticalAlign=top;fontStyle=0;fontColor=#147EBA;whiteSpace=wrap;html=1;align=left;" parent="Di7BUi1CNMxyMRBLhMNI-5" vertex="1">
          <mxGeometry x="20" y="40" width="310" height="520" as="geometry" />
        </mxCell>
        <mxCell id="Di7BUi1CNMxyMRBLhMNI-8" value="&lt;b&gt;Availability Zone 1b&lt;/b&gt;" style="fillColor=none;strokeColor=#147EBA;dashed=1;verticalAlign=top;fontStyle=0;fontColor=#147EBA;whiteSpace=wrap;html=1;align=left;" parent="Di7BUi1CNMxyMRBLhMNI-5" vertex="1">
          <mxGeometry x="590" y="40" width="310" height="520" as="geometry" />
        </mxCell>
        <mxCell id="Di7BUi1CNMxyMRBLhMNI-9" value="&lt;b&gt;Private Subnet 1&lt;br&gt;10.0.2.0/23&lt;br&gt;&lt;/b&gt;" style="points=[[0,0],[0.25,0],[0.5,0],[0.75,0],[1,0],[1,0.25],[1,0.5],[1,0.75],[1,1],[0.75,1],[0.5,1],[0.25,1],[0,1],[0,0.75],[0,0.5],[0,0.25]];outlineConnect=0;gradientColor=none;html=1;whiteSpace=wrap;fontSize=12;fontStyle=0;container=1;pointerEvents=0;collapsible=0;recursiveResize=0;shape=mxgraph.aws4.group;grIcon=mxgraph.aws4.group_security_group;grStroke=0;strokeColor=#147EBA;fillColor=#E6F2F8;verticalAlign=top;align=left;spacingLeft=30;fontColor=#147EBA;dashed=0;" parent="Di7BUi1CNMxyMRBLhMNI-5" vertex="1">
          <mxGeometry x="40" y="320" width="270" height="220" as="geometry" />
        </mxCell>
        <mxCell id="Di7BUi1CNMxyMRBLhMNI-16" value="" style="sketch=0;points=[[0,0,0],[0.25,0,0],[0.5,0,0],[0.75,0,0],[1,0,0],[0,1,0],[0.25,1,0],[0.5,1,0],[0.75,1,0],[1,1,0],[0,0.25,0],[0,0.5,0],[0,0.75,0],[1,0.25,0],[1,0.5,0],[1,0.75,0]];outlineConnect=0;fontColor=#232F3E;gradientColor=#F78E04;gradientDirection=north;fillColor=#D05C17;strokeColor=#ffffff;dashed=0;verticalLabelPosition=bottom;verticalAlign=top;align=center;html=1;fontSize=12;fontStyle=0;aspect=fixed;shape=mxgraph.aws4.resourceIcon;resIcon=mxgraph.aws4.compute;" parent="Di7BUi1CNMxyMRBLhMNI-9" vertex="1">
          <mxGeometry x="210" y="80" width="40" height="40" as="geometry" />
        </mxCell>
        <mxCell id="Di7BUi1CNMxyMRBLhMNI-46" value="" style="edgeStyle=orthogonalEdgeStyle;html=1;endArrow=block;elbow=vertical;startArrow=block;startFill=1;endFill=1;strokeColor=#545B64;rounded=0;" parent="Di7BUi1CNMxyMRBLhMNI-9" edge="1">
          <mxGeometry width="100" relative="1" as="geometry">
            <mxPoint x="60" y="99.74000000000001" as="sourcePoint" />
            <mxPoint x="210" y="99.5" as="targetPoint" />
            <Array as="points">
              <mxPoint x="60" y="99.74000000000001" />
              <mxPoint x="60" y="99.74000000000001" />
            </Array>
          </mxGeometry>
        </mxCell>
        <mxCell id="Di7BUi1CNMxyMRBLhMNI-47" value="&lt;b style=&quot;font-size: 10px;&quot;&gt;TCP 3306&lt;/b&gt;" style="text;html=1;strokeColor=none;fillColor=none;align=center;verticalAlign=middle;whiteSpace=wrap;rounded=0;" parent="Di7BUi1CNMxyMRBLhMNI-9" vertex="1">
          <mxGeometry x="105" y="70" width="60" height="30" as="geometry" />
        </mxCell>
        <mxCell id="U3A6wxhuHaN-O8N7aprj-1" value="" style="sketch=0;outlineConnect=0;fontColor=#232F3E;gradientColor=none;fillColor=#C925D1;strokeColor=none;dashed=0;verticalLabelPosition=bottom;verticalAlign=top;align=center;html=1;fontSize=12;fontStyle=0;aspect=fixed;pointerEvents=1;shape=mxgraph.aws4.rds_postgresql_instance;" vertex="1" parent="Di7BUi1CNMxyMRBLhMNI-9">
          <mxGeometry x="12" y="80" width="42" height="42" as="geometry" />
        </mxCell>
        <mxCell id="Di7BUi1CNMxyMRBLhMNI-12" value="&lt;b&gt;Private Subnet 2&lt;br&gt;10.0.4.0/23&lt;br&gt;&lt;/b&gt;" style="points=[[0,0],[0.25,0],[0.5,0],[0.75,0],[1,0],[1,0.25],[1,0.5],[1,0.75],[1,1],[0.75,1],[0.5,1],[0.25,1],[0,1],[0,0.75],[0,0.5],[0,0.25]];outlineConnect=0;gradientColor=none;html=1;whiteSpace=wrap;fontSize=12;fontStyle=0;container=1;pointerEvents=0;collapsible=0;recursiveResize=0;shape=mxgraph.aws4.group;grIcon=mxgraph.aws4.group_security_group;grStroke=0;strokeColor=#147EBA;fillColor=#E6F2F8;verticalAlign=top;align=left;spacingLeft=30;fontColor=#147EBA;dashed=0;" parent="Di7BUi1CNMxyMRBLhMNI-5" vertex="1">
          <mxGeometry x="610" y="320" width="270" height="220" as="geometry" />
        </mxCell>
        <mxCell id="Di7BUi1CNMxyMRBLhMNI-25" value="&lt;b&gt;RDS DB Instance Standby&lt;/b&gt;" style="text;html=1;strokeColor=none;fillColor=none;align=center;verticalAlign=middle;whiteSpace=wrap;rounded=0;" parent="Di7BUi1CNMxyMRBLhMNI-12" vertex="1">
          <mxGeometry x="200" y="130" width="60" height="30" as="geometry" />
        </mxCell>
        <mxCell id="U3A6wxhuHaN-O8N7aprj-2" value="" style="sketch=0;outlineConnect=0;fontColor=#232F3E;gradientColor=none;fillColor=#C925D1;strokeColor=none;dashed=0;verticalLabelPosition=bottom;verticalAlign=top;align=center;html=1;fontSize=12;fontStyle=0;aspect=fixed;pointerEvents=1;shape=mxgraph.aws4.rds_postgresql_instance;" vertex="1" parent="Di7BUi1CNMxyMRBLhMNI-12">
          <mxGeometry x="209" y="76" width="42" height="42" as="geometry" />
        </mxCell>
        <mxCell id="Di7BUi1CNMxyMRBLhMNI-13" value="&lt;b&gt;Public Subnet&lt;br&gt;10.0.1.0/24&lt;br&gt;&lt;/b&gt;" style="points=[[0,0],[0.25,0],[0.5,0],[0.75,0],[1,0],[1,0.25],[1,0.5],[1,0.75],[1,1],[0.75,1],[0.5,1],[0.25,1],[0,1],[0,0.75],[0,0.5],[0,0.25]];outlineConnect=0;gradientColor=none;html=1;whiteSpace=wrap;fontSize=12;fontStyle=0;container=1;pointerEvents=0;collapsible=0;recursiveResize=0;shape=mxgraph.aws4.group;grIcon=mxgraph.aws4.group_security_group;grStroke=0;strokeColor=#248814;fillColor=#E9F3E6;verticalAlign=top;align=left;spacingLeft=30;fontColor=#248814;dashed=0;" parent="Di7BUi1CNMxyMRBLhMNI-5" vertex="1">
          <mxGeometry x="610" y="80" width="270" height="220" as="geometry" />
        </mxCell>
        <mxCell id="Di7BUi1CNMxyMRBLhMNI-14" value="&lt;b&gt;Public Subnet 1&lt;br&gt;10.0.1.0/24&lt;br&gt;&lt;/b&gt;" style="points=[[0,0],[0.25,0],[0.5,0],[0.75,0],[1,0],[1,0.25],[1,0.5],[1,0.75],[1,1],[0.75,1],[0.5,1],[0.25,1],[0,1],[0,0.75],[0,0.5],[0,0.25]];outlineConnect=0;gradientColor=none;html=1;whiteSpace=wrap;fontSize=12;fontStyle=0;container=1;pointerEvents=0;collapsible=0;recursiveResize=0;shape=mxgraph.aws4.group;grIcon=mxgraph.aws4.group_security_group;grStroke=0;strokeColor=#248814;fillColor=#E9F3E6;verticalAlign=top;align=left;spacingLeft=30;fontColor=#248814;dashed=0;" parent="Di7BUi1CNMxyMRBLhMNI-5" vertex="1">
          <mxGeometry x="40" y="80" width="270" height="220" as="geometry" />
        </mxCell>
        <mxCell id="Di7BUi1CNMxyMRBLhMNI-21" value="&lt;b&gt;Bastion Host&lt;/b&gt;" style="text;html=1;strokeColor=none;fillColor=none;align=center;verticalAlign=middle;whiteSpace=wrap;rounded=0;" parent="Di7BUi1CNMxyMRBLhMNI-14" vertex="1">
          <mxGeometry x="199" y="95" width="60" height="30" as="geometry" />
        </mxCell>
        <mxCell id="Di7BUi1CNMxyMRBLhMNI-15" value="" style="sketch=0;points=[[0,0,0],[0.25,0,0],[0.5,0,0],[0.75,0,0],[1,0,0],[0,1,0],[0.25,1,0],[0.5,1,0],[0.75,1,0],[1,1,0],[0,0.25,0],[0,0.5,0],[0,0.75,0],[1,0.25,0],[1,0.5,0],[1,0.75,0]];outlineConnect=0;fontColor=#232F3E;gradientColor=#F78E04;gradientDirection=north;fillColor=#D05C17;strokeColor=#ffffff;dashed=0;verticalLabelPosition=bottom;verticalAlign=top;align=center;html=1;fontSize=12;fontStyle=0;aspect=fixed;shape=mxgraph.aws4.resourceIcon;resIcon=mxgraph.aws4.compute;" parent="Di7BUi1CNMxyMRBLhMNI-5" vertex="1">
          <mxGeometry x="630" y="400" width="38" height="38" as="geometry" />
        </mxCell>
        <mxCell id="Di7BUi1CNMxyMRBLhMNI-19" value="&lt;b&gt;App Server&lt;/b&gt;" style="text;html=1;strokeColor=none;fillColor=none;align=center;verticalAlign=middle;whiteSpace=wrap;rounded=0;" parent="Di7BUi1CNMxyMRBLhMNI-5" vertex="1">
          <mxGeometry x="619" y="440" width="60" height="30" as="geometry" />
        </mxCell>
        <mxCell id="Di7BUi1CNMxyMRBLhMNI-18" value="&lt;b&gt;App Server&lt;/b&gt;" style="text;html=1;strokeColor=none;fillColor=none;align=center;verticalAlign=middle;whiteSpace=wrap;rounded=0;" parent="Di7BUi1CNMxyMRBLhMNI-5" vertex="1">
          <mxGeometry x="240" y="440" width="60" height="30" as="geometry" />
        </mxCell>
        <mxCell id="Di7BUi1CNMxyMRBLhMNI-20" value="&lt;b&gt;Auto Scaling group&lt;/b&gt;" style="points=[[0,0],[0.25,0],[0.5,0],[0.75,0],[1,0],[1,0.25],[1,0.5],[1,0.75],[1,1],[0.75,1],[0.5,1],[0.25,1],[0,1],[0,0.75],[0,0.5],[0,0.25]];outlineConnect=0;gradientColor=none;html=1;whiteSpace=wrap;fontSize=12;fontStyle=0;container=1;pointerEvents=0;collapsible=0;recursiveResize=0;shape=mxgraph.aws4.groupCenter;grIcon=mxgraph.aws4.group_auto_scaling_group;grStroke=1;strokeColor=#D86613;fillColor=none;verticalAlign=top;align=center;fontColor=#D86613;dashed=1;spacingTop=25;" parent="Di7BUi1CNMxyMRBLhMNI-5" vertex="1">
          <mxGeometry x="230" y="354" width="460" height="136" as="geometry" />
        </mxCell>
        <mxCell id="Di7BUi1CNMxyMRBLhMNI-37" value="&lt;b&gt;Bastion Security group&lt;/b&gt;" style="fillColor=none;strokeColor=#DD3522;verticalAlign=top;fontStyle=0;fontColor=#DD3522;whiteSpace=wrap;html=1;" parent="Di7BUi1CNMxyMRBLhMNI-20" vertex="1">
          <mxGeometry y="116" width="460" height="20" as="geometry" />
        </mxCell>
        <mxCell id="Di7BUi1CNMxyMRBLhMNI-17" value="" style="sketch=0;points=[[0,0,0],[0.25,0,0],[0.5,0,0],[0.75,0,0],[1,0,0],[0,1,0],[0.25,1,0],[0.5,1,0],[0.75,1,0],[1,1,0],[0,0.25,0],[0,0.5,0],[0,0.75,0],[1,0.25,0],[1,0.5,0],[1,0.75,0]];outlineConnect=0;fontColor=#232F3E;gradientColor=#F78E04;gradientDirection=north;fillColor=#D05C17;strokeColor=#ffffff;dashed=0;verticalLabelPosition=bottom;verticalAlign=top;align=center;html=1;fontSize=12;fontStyle=0;aspect=fixed;shape=mxgraph.aws4.resourceIcon;resIcon=mxgraph.aws4.compute;" parent="Di7BUi1CNMxyMRBLhMNI-5" vertex="1">
          <mxGeometry x="250" y="130" width="38" height="38" as="geometry" />
        </mxCell>
        <mxCell id="Di7BUi1CNMxyMRBLhMNI-26" value="" style="sketch=0;outlineConnect=0;fontColor=#232F3E;gradientColor=none;fillColor=#4D27AA;strokeColor=none;dashed=0;verticalLabelPosition=bottom;verticalAlign=top;align=center;html=1;fontSize=12;fontStyle=0;aspect=fixed;pointerEvents=1;shape=mxgraph.aws4.application_load_balancer;" parent="Di7BUi1CNMxyMRBLhMNI-5" vertex="1">
          <mxGeometry x="435" y="80" width="50" height="50" as="geometry" />
        </mxCell>
        <mxCell id="Di7BUi1CNMxyMRBLhMNI-27" value="&lt;b&gt;Application Load Balancer&lt;/b&gt;" style="text;html=1;strokeColor=none;fillColor=none;align=center;verticalAlign=middle;whiteSpace=wrap;rounded=0;" parent="Di7BUi1CNMxyMRBLhMNI-5" vertex="1">
          <mxGeometry x="430" y="140" width="60" height="30" as="geometry" />
        </mxCell>
        <mxCell id="Di7BUi1CNMxyMRBLhMNI-29" value="&lt;b&gt;Internet Gateway&lt;/b&gt;" style="text;html=1;strokeColor=none;fillColor=none;align=center;verticalAlign=middle;whiteSpace=wrap;rounded=0;" parent="Di7BUi1CNMxyMRBLhMNI-5" vertex="1">
          <mxGeometry x="430" y="-20" width="60" height="30" as="geometry" />
        </mxCell>
        <mxCell id="Di7BUi1CNMxyMRBLhMNI-30" value="" style="sketch=0;outlineConnect=0;fontColor=#232F3E;gradientColor=none;fillColor=#4D27AA;strokeColor=none;dashed=0;verticalLabelPosition=bottom;verticalAlign=top;align=center;html=1;fontSize=12;fontStyle=0;aspect=fixed;pointerEvents=1;shape=mxgraph.aws4.nat_gateway;" parent="Di7BUi1CNMxyMRBLhMNI-5" vertex="1">
          <mxGeometry x="130" y="130" width="50" height="50" as="geometry" />
        </mxCell>
        <mxCell id="Di7BUi1CNMxyMRBLhMNI-31" value="" style="sketch=0;outlineConnect=0;fontColor=#232F3E;gradientColor=none;fillColor=#4D27AA;strokeColor=none;dashed=0;verticalLabelPosition=bottom;verticalAlign=top;align=center;html=1;fontSize=12;fontStyle=0;aspect=fixed;pointerEvents=1;shape=mxgraph.aws4.nat_gateway;" parent="Di7BUi1CNMxyMRBLhMNI-5" vertex="1">
          <mxGeometry x="700" y="130" width="50" height="50" as="geometry" />
        </mxCell>
        <mxCell id="Di7BUi1CNMxyMRBLhMNI-32" value="&lt;b&gt;NAT Gateway&lt;/b&gt;" style="text;html=1;strokeColor=none;fillColor=none;align=center;verticalAlign=middle;whiteSpace=wrap;rounded=0;" parent="Di7BUi1CNMxyMRBLhMNI-5" vertex="1">
          <mxGeometry x="125" y="190" width="60" height="30" as="geometry" />
        </mxCell>
        <mxCell id="Di7BUi1CNMxyMRBLhMNI-33" value="&lt;b&gt;NAT Gateway&lt;/b&gt;" style="text;html=1;strokeColor=none;fillColor=none;align=center;verticalAlign=middle;whiteSpace=wrap;rounded=0;" parent="Di7BUi1CNMxyMRBLhMNI-5" vertex="1">
          <mxGeometry x="695" y="190" width="60" height="30" as="geometry" />
        </mxCell>
        <mxCell id="Di7BUi1CNMxyMRBLhMNI-35" value="&lt;b&gt;Database Security Group&lt;/b&gt;" style="fillColor=none;strokeColor=#DD3522;verticalAlign=top;fontStyle=0;fontColor=#DD3522;whiteSpace=wrap;html=1;" parent="Di7BUi1CNMxyMRBLhMNI-5" vertex="1">
          <mxGeometry x="790" y="490" width="90" height="40" as="geometry" />
        </mxCell>
        <mxCell id="Di7BUi1CNMxyMRBLhMNI-36" value="&lt;b&gt;Bastion Security group&lt;/b&gt;" style="fillColor=none;strokeColor=#DD3522;verticalAlign=top;fontStyle=0;fontColor=#DD3522;whiteSpace=wrap;html=1;" parent="Di7BUi1CNMxyMRBLhMNI-5" vertex="1">
          <mxGeometry x="220" y="210" width="100" height="40" as="geometry" />
        </mxCell>
        <mxCell id="Di7BUi1CNMxyMRBLhMNI-38" value="&lt;b&gt;Application Security group&lt;/b&gt;" style="fillColor=none;strokeColor=#DD3522;verticalAlign=top;fontStyle=0;fontColor=#DD3522;whiteSpace=wrap;html=1;" parent="Di7BUi1CNMxyMRBLhMNI-5" vertex="1">
          <mxGeometry x="230" y="490" width="460" height="20" as="geometry" />
        </mxCell>
        <mxCell id="Di7BUi1CNMxyMRBLhMNI-39" value="&lt;b&gt;Application Security group&lt;/b&gt;" style="fillColor=none;strokeColor=#DD3522;verticalAlign=top;fontStyle=0;fontColor=#DD3522;whiteSpace=wrap;html=1;" parent="Di7BUi1CNMxyMRBLhMNI-5" vertex="1">
          <mxGeometry x="400" y="180" width="130" height="40" as="geometry" />
        </mxCell>
        <mxCell id="Di7BUi1CNMxyMRBLhMNI-45" value="" style="edgeStyle=orthogonalEdgeStyle;html=1;endArrow=block;elbow=vertical;startArrow=block;startFill=1;endFill=1;strokeColor=#545B64;rounded=0;" parent="Di7BUi1CNMxyMRBLhMNI-5" edge="1">
          <mxGeometry width="100" relative="1" as="geometry">
            <mxPoint x="300" y="430" as="sourcePoint" />
            <mxPoint x="365" y="610" as="targetPoint" />
            <Array as="points">
              <mxPoint x="365" y="430" />
            </Array>
          </mxGeometry>
        </mxCell>
        <mxCell id="Di7BUi1CNMxyMRBLhMNI-49" value="&lt;b style=&quot;font-size: 10px;&quot;&gt;TCP 22&lt;/b&gt;" style="text;html=1;strokeColor=none;fillColor=none;align=center;verticalAlign=middle;whiteSpace=wrap;rounded=0;" parent="Di7BUi1CNMxyMRBLhMNI-5" vertex="1">
          <mxGeometry x="300" y="264" width="60" height="30" as="geometry" />
        </mxCell>
        <mxCell id="Di7BUi1CNMxyMRBLhMNI-52" value="" style="endArrow=classic;html=1;rounded=0;" parent="Di7BUi1CNMxyMRBLhMNI-5" edge="1">
          <mxGeometry width="50" height="50" relative="1" as="geometry">
            <mxPoint x="300" y="150" as="sourcePoint" />
            <mxPoint x="300" y="410" as="targetPoint" />
            <Array as="points">
              <mxPoint x="330" y="150" />
              <mxPoint x="360" y="150" />
              <mxPoint x="360" y="280" />
              <mxPoint x="360" y="410" />
            </Array>
          </mxGeometry>
        </mxCell>
        <mxCell id="Di7BUi1CNMxyMRBLhMNI-57" value="" style="edgeStyle=orthogonalEdgeStyle;html=1;endArrow=block;elbow=vertical;startArrow=none;endFill=1;strokeColor=#545B64;rounded=0;" parent="Di7BUi1CNMxyMRBLhMNI-5" edge="1">
          <mxGeometry width="100" relative="1" as="geometry">
            <mxPoint x="459.5" y="10" as="sourcePoint" />
            <mxPoint x="459.5" y="80" as="targetPoint" />
          </mxGeometry>
        </mxCell>
        <mxCell id="Di7BUi1CNMxyMRBLhMNI-59" value="" style="edgeStyle=orthogonalEdgeStyle;html=1;endArrow=block;elbow=vertical;startArrow=block;startFill=1;endFill=1;strokeColor=#545B64;rounded=0;" parent="Di7BUi1CNMxyMRBLhMNI-5" edge="1">
          <mxGeometry width="100" relative="1" as="geometry">
            <mxPoint x="300" y="420" as="sourcePoint" />
            <mxPoint x="437.25" y="110" as="targetPoint" />
            <Array as="points">
              <mxPoint x="380" y="420" />
              <mxPoint x="380" y="110" />
            </Array>
          </mxGeometry>
        </mxCell>
        <mxCell id="Di7BUi1CNMxyMRBLhMNI-34" value="&lt;b&gt;Database Security Group&lt;/b&gt;" style="fillColor=none;strokeColor=#DD3522;verticalAlign=top;fontStyle=0;fontColor=#DD3522;whiteSpace=wrap;html=1;" parent="Di7BUi1CNMxyMRBLhMNI-5" vertex="1">
          <mxGeometry x="40" y="490" width="90" height="40" as="geometry" />
        </mxCell>
        <mxCell id="Di7BUi1CNMxyMRBLhMNI-24" value="&lt;b&gt;RDS DB Instance Primary&lt;/b&gt;" style="text;html=1;strokeColor=none;fillColor=none;align=center;verticalAlign=middle;whiteSpace=wrap;rounded=0;" parent="Di7BUi1CNMxyMRBLhMNI-5" vertex="1">
          <mxGeometry x="44.5" y="449" width="60" height="30" as="geometry" />
        </mxCell>
        <mxCell id="Di7BUi1CNMxyMRBLhMNI-28" value="" style="sketch=0;outlineConnect=0;fontColor=#232F3E;gradientColor=none;fillColor=#4D27AA;strokeColor=none;dashed=0;verticalLabelPosition=bottom;verticalAlign=top;align=center;html=1;fontSize=12;fontStyle=0;aspect=fixed;pointerEvents=1;shape=mxgraph.aws4.internet_gateway;" parent="Di7BUi1CNMxyMRBLhMNI-3" vertex="1">
          <mxGeometry x="475" y="-30" width="50" height="50" as="geometry" />
        </mxCell>
        <mxCell id="Di7BUi1CNMxyMRBLhMNI-40" value="" style="sketch=0;outlineConnect=0;fontColor=#232F3E;gradientColor=none;fillColor=#BF0816;strokeColor=none;dashed=0;verticalLabelPosition=bottom;verticalAlign=top;align=center;html=1;fontSize=12;fontStyle=0;aspect=fixed;pointerEvents=1;shape=mxgraph.aws4.role;" parent="Di7BUi1CNMxyMRBLhMNI-3" vertex="1">
          <mxGeometry x="390" y="650" width="58" height="32.72" as="geometry" />
        </mxCell>
        <mxCell id="Di7BUi1CNMxyMRBLhMNI-41" value="" style="sketch=0;outlineConnect=0;fontColor=#232F3E;gradientColor=none;fillColor=#B0084D;strokeColor=none;dashed=0;verticalLabelPosition=bottom;verticalAlign=top;align=center;html=1;fontSize=12;fontStyle=0;aspect=fixed;pointerEvents=1;shape=mxgraph.aws4.parameter_store;" parent="Di7BUi1CNMxyMRBLhMNI-3" vertex="1">
          <mxGeometry x="545" y="646.8" width="34.54" height="35.92" as="geometry" />
        </mxCell>
        <mxCell id="Di7BUi1CNMxyMRBLhMNI-42" value="" style="edgeStyle=orthogonalEdgeStyle;html=1;endArrow=block;elbow=vertical;startArrow=block;startFill=1;endFill=1;strokeColor=#545B64;rounded=0;" parent="Di7BUi1CNMxyMRBLhMNI-3" edge="1">
          <mxGeometry width="100" relative="1" as="geometry">
            <mxPoint x="450" y="666.1" as="sourcePoint" />
            <mxPoint x="540" y="665.86" as="targetPoint" />
            <Array as="points">
              <mxPoint x="450" y="666.1" />
              <mxPoint x="450" y="666.1" />
            </Array>
          </mxGeometry>
        </mxCell>
        <mxCell id="Di7BUi1CNMxyMRBLhMNI-43" value="&lt;b&gt;Recipe App IAM Role&lt;/b&gt;" style="text;html=1;strokeColor=none;fillColor=none;align=center;verticalAlign=middle;whiteSpace=wrap;rounded=0;" parent="Di7BUi1CNMxyMRBLhMNI-3" vertex="1">
          <mxGeometry x="280" y="652.72" width="105" height="30" as="geometry" />
        </mxCell>
        <mxCell id="Di7BUi1CNMxyMRBLhMNI-44" value="&lt;b&gt;Secrets Manager - stores the database connection parameters&lt;/b&gt;" style="text;html=1;strokeColor=none;fillColor=none;align=center;verticalAlign=middle;whiteSpace=wrap;rounded=0;" parent="Di7BUi1CNMxyMRBLhMNI-3" vertex="1">
          <mxGeometry x="590" y="652.72" width="170" height="30" as="geometry" />
        </mxCell>
        <mxCell id="Di7BUi1CNMxyMRBLhMNI-50" value="" style="sketch=0;outlineConnect=0;fontColor=#232F3E;gradientColor=none;fillColor=#232F3D;strokeColor=none;dashed=0;verticalLabelPosition=bottom;verticalAlign=top;align=center;html=1;fontSize=12;fontStyle=0;aspect=fixed;pointerEvents=1;shape=mxgraph.aws4.internet;" parent="1" vertex="1">
          <mxGeometry x="517.25" y="-80" width="45.5" height="28" as="geometry" />
        </mxCell>
        <mxCell id="Di7BUi1CNMxyMRBLhMNI-51" value="" style="sketch=0;outlineConnect=0;fontColor=#232F3E;gradientColor=none;fillColor=#232F3D;strokeColor=none;dashed=0;verticalLabelPosition=bottom;verticalAlign=top;align=center;html=1;fontSize=12;fontStyle=0;aspect=fixed;pointerEvents=1;shape=mxgraph.aws4.users;" parent="1" vertex="1">
          <mxGeometry x="360" y="-80" width="39" height="39" as="geometry" />
        </mxCell>
        <mxCell id="Di7BUi1CNMxyMRBLhMNI-53" value="" style="edgeStyle=orthogonalEdgeStyle;html=1;endArrow=block;elbow=vertical;startArrow=none;endFill=1;strokeColor=#545B64;rounded=0;" parent="1" edge="1">
          <mxGeometry width="100" relative="1" as="geometry">
            <mxPoint x="409" y="-66.5" as="sourcePoint" />
            <mxPoint x="509" y="-66.5" as="targetPoint" />
          </mxGeometry>
        </mxCell>
        <mxCell id="Di7BUi1CNMxyMRBLhMNI-54" value="" style="edgeStyle=orthogonalEdgeStyle;html=1;endArrow=block;elbow=vertical;startArrow=none;endFill=1;strokeColor=#545B64;rounded=0;" parent="1" edge="1">
          <mxGeometry width="100" relative="1" as="geometry">
            <mxPoint x="539.5" y="-41" as="sourcePoint" />
            <mxPoint x="539.5" y="49" as="targetPoint" />
          </mxGeometry>
        </mxCell>
        <mxCell id="Di7BUi1CNMxyMRBLhMNI-58" value="&lt;b&gt;User connecting to app on ports 80 or 443 through Internet Gateway&lt;/b&gt;" style="text;html=1;strokeColor=none;fillColor=none;align=center;verticalAlign=middle;whiteSpace=wrap;rounded=0;" parent="1" vertex="1">
          <mxGeometry x="562.75" y="-50" width="110" height="50" as="geometry" />
        </mxCell>
      </root>
    </mxGraphModel>
  </diagram>
</mxfile>
